# xmcd CD database file
# Copyright (C) 1996 Ti Kan
#
# Track frame offsets:
#  182
#  10670
#  21600
#  31850
#  41530
#  67785
#  80170
#  95577
#  109065
#  126642
#  149582
#  179997
#  192407
#  208312
#  223667
#  239205
#  248930
#  271492
#  285157
#  295560
#  307307
#
# Disc length: 4313 seconds
#
# Revision: 1
# Processed by: cddbd v1.4b41PL1 Copyright (c) Steve Scherf et al.
# Submitted via: CDWizzard Release:4.12
#
DISCID=5610d715
DTITLE=Lightnin' Hopkins - Mojo Hand [CD2]
DYEAR=1900
DGENRE=
TTITLE0=My Little Kewpie Doll
TTITLE1=Blues For My Cookie
TTITLE2=Had A Gal Named Sal
TTITLE3=They Wonder Who I Am
TTITLE4=Wimmin From Coast To Coast
TTITLE5=Fan It
TTITLE6=War Is Starting Again
TTITLE7=Rolling And Rolling
TTITLE8=Death Bells
TTITLE9=I'll Be Gone
TTITLE10=I Asked The Bossman
TTITLE11=Shaggy Dad
TTITLE12=Black Ghost Blues
TTITLE13=No Education
TTITLE14=Antoinette's Blues
TTITLE15=Los Angeles Boogie
TTITLE16=Let Them Little Things Be True
TTITLE17=Mojo Hand (Part 1)
TTITLE18=Mr. Charlie (Part 1)
TTITLE19=Mr. Charlie (Part 2)
TTITLE20=Fishing Clothes
EXTD=
EXTT0=
EXTT1=
EXTT2=
EXTT3=
EXTT4=
EXTT5=
EXTT6=
EXTT7=
EXTT8=
EXTT9=
EXTT10=
EXTT11=
EXTT12=
EXTT13=
EXTT14=
EXTT15=
EXTT16=
EXTT17=
EXTT18=
EXTT19=
EXTT20=
PLAYORDER=
